{"asset":{"version":"2.0","generator":"Blockbench 4.8.3 glTF exporter"},"scenes":[{"nodes":[13],"name":"blockbench_export"}],"scene":0,"nodes":[{"rotation":[6.123233995736762e-17,-1,5.053215498074303e-16,6.123233995736777e-17],"translation":[-8.41944674413805e-17,-0.6875000000000001,-8.326672684688674e-17],"name":"head","mesh":0},{"translation":[8.41944674413805e-17,0.6875000000000001,8.326672684688674e-17],"name":"head","children":[0]},{"name":"cylinder","mesh":1},{"rotation":[-0.4425947254547177,0.5514615980398676,0.44259473791563675,0.5514616150344166],"translation":[0.21874999999999994,-0.5000000000000001,-0.031250000000000056],"name":"hand L","mesh":2},{"translation":[-0.21874999999999994,0.5000000000000002,0.031250000000000056],"name":"hand_L","children":[3]},{"rotation":[-0.4425947254547177,-0.5514615980398676,-0.44259473791563675,0.5514616150344166],"translation":[-0.21874999999999994,-0.5000000000000001,-0.031250000000000056],"name":"hand L","mesh":3},{"translation":[0.21874999999999994,0.5000000000000002,0.031250000000000056],"name":"hand_R","children":[5]},{"name":"torso","children":[2,4,6]},{"translation":[0.12499999999999996,-0.15625,-2.7755575615628914e-17],"name":"leg L","mesh":4},{"translation":[-0.12499999999999999,0.1562500000000002,0.06250000000000003],"name":"leg_L","children":[8]},{"translation":[-0.12499999999999996,-0.15625,-2.7755575615628914e-17],"name":"leg R","mesh":5},{"translation":[0.12499999999999999,0.1562500000000002,0.06250000000000003],"name":"leg_R","children":[10]},{"rotation":[6.123233995736766e-17,1,6.123233995736766e-17,-1.0402068511463464e-33],"translation":[-6.938893903907228e-17,0.004687500000000001,0.02798410163604613],"name":"godot","children":[1,7,9,11]},{"children":[12]}],"bufferViews":[{"buffer":0,"byteOffset":0,"byteLength":3132,"target":34962,"byteStride":12},{"buffer":0,"byteOffset":3132,"byteLength":3132,"target":34962,"byteStride":12},{"buffer":0,"byteOffset":6264,"byteLength":2088,"target":34962,"byteStride":8},{"buffer":0,"byteOffset":8352,"byteLength":740,"target":34963},{"buffer":0,"byteOffset":9092,"byteLength":1296,"target":34962,"byteStride":12},{"buffer":0,"byteOffset":10388,"byteLength":1296,"target":34962,"byteStride":12},{"buffer":0,"byteOffset":11684,"byteLength":864,"target":34962,"byteStride":8},{"buffer":0,"byteOffset":12548,"byteLength":288,"target":34963},{"buffer":0,"byteOffset":12836,"byteLength":1752,"target":34962,"byteStride":12},{"buffer":0,"byteOffset":14588,"byteLength":1752,"target":34962,"byteStride":12},{"buffer":0,"byteOffset":16340,"byteLength":1168,"target":34962,"byteStride":8},{"buffer":0,"byteOffset":17508,"byteLength":408,"target":34963},{"buffer":0,"byteOffset":17916,"byteLength":1752,"target":34962,"byteStride":12},{"buffer":0,"byteOffset":19668,"byteLength":1752,"target":34962,"byteStride":12},{"buffer":0,"byteOffset":21420,"byteLength":1168,"target":34962,"byteStride":8},{"buffer":0,"byteOffset":22588,"byteLength":408,"target":34963},{"buffer":0,"byteOffset":22996,"byteLength":1056,"target":34962,"byteStride":12},{"buffer":0,"byteOffset":24052,"byteLength":1056,"target":34962,"byteStride":12},{"buffer":0,"byteOffset":25108,"byteLength":704,"target":34962,"byteStride":8},{"buffer":0,"byteOffset":25812,"byteLength":264,"target":34963},{"buffer":0,"byteOffset":26076,"byteLength":1056,"target":34962,"byteStride":12},{"buffer":0,"byteOffset":27132,"byteLength":1056,"target":34962,"byteStride":12},{"buffer":0,"byteOffset":28188,"byteLength":704,"target":34962,"byteStride":8},{"buffer":0,"byteOffset":28892,"byteLength":264,"target":34963},{"buffer":0,"byteOffset":29156,"byteLength":20},{"buffer":0,"byteOffset":29176,"byteLength":60},{"buffer":0,"byteOffset":29236,"byteLength":20},{"buffer":0,"byteOffset":29256,"byteLength":80},{"buffer":0,"byteOffset":29336,"byteLength":20},{"buffer":0,"byteOffset":29356,"byteLength":60},{"buffer":0,"byteOffset":29416,"byteLength":20},{"buffer":0,"byteOffset":29436,"byteLength":80},{"buffer":0,"byteOffset":29516,"byteLength":20},{"buffer":0,"byteOffset":29536,"byteLength":60},{"buffer":0,"byteOffset":29596,"byteLength":20},{"buffer":0,"byteOffset":29616,"byteLength":80},{"buffer":0,"byteOffset":29696,"byteLength":20},{"buffer":0,"byteOffset":29716,"byteLength":60},{"buffer":0,"byteOffset":29776,"byteLength":20},{"buffer":0,"byteOffset":29796,"byteLength":80},{"buffer":0,"byteOffset":29876,"byteLength":24},{"buffer":0,"byteOffset":29900,"byteLength":72},{"buffer":0,"byteOffset":29972,"byteLength":20},{"buffer":0,"byteOffset":29992,"byteLength":80},{"buffer":0,"byteOffset":30072,"byteLength":24},{"buffer":0,"byteOffset":30096,"byteLength":72},{"buffer":0,"byteOffset":30168,"byteLength":8},{"buffer":0,"byteOffset":30176,"byteLength":32},{"buffer":0,"byteOffset":30208,"byteLength":8},{"buffer":0,"byteOffset":30216,"byteLength":24},{"buffer":0,"byteOffset":30240,"byteLength":12},{"buffer":0,"byteOffset":30252,"byteLength":48},{"buffer":0,"byteOffset":30300,"byteLength":16},{"buffer":0,"byteOffset":30316,"byteLength":48},{"buffer":0,"byteOffset":30364,"byteLength":16},{"buffer":0,"byteOffset":30380,"byteLength":64},{"buffer":0,"byteOffset":30444,"byteLength":16},{"buffer":0,"byteOffset":30460,"byteLength":48},{"buffer":0,"byteOffset":30508,"byteLength":16},{"buffer":0,"byteOffset":30524,"byteLength":64},{"buffer":0,"byteOffset":30588,"byteLength":8},{"buffer":0,"byteOffset":30596,"byteLength":24},{"buffer":0,"byteOffset":30620,"byteLength":16},{"buffer":0,"byteOffset":30636,"byteLength":64},{"buffer":0,"byteOffset":30700,"byteLength":12},{"buffer":0,"byteOffset":30712,"byteLength":36},{"buffer":0,"byteOffset":30748,"byteLength":16},{"buffer":0,"byteOffset":30764,"byteLength":64},{"buffer":0,"byteOffset":30828,"byteLength":24},{"buffer":0,"byteOffset":30852,"byteLength":72},{"buffer":0,"byteOffset":30924,"byteLength":24},{"buffer":0,"byteOffset":30948,"byteLength":96},{"buffer":0,"byteOffset":31044,"byteLength":24},{"buffer":0,"byteOffset":31068,"byteLength":72}],"buffers":[{"byteLength":31140,"uri":"data:application/octet-stream;base64,"}],"accessors":[{"bufferView":0,"componentType":5126,"count":261,"max":[0.21875,0.9320107698440552,0.21562500298023224],"min":[-0.21875,0.4632607698440552,-0.28437501192092896],"type":"VEC3"},{"bufferView":1,"componentType":5126,"count":261,"max":[1,0.9224062561988831,0.8821504712104797],"min":[-1,-0.9223652482032776,-0.8819560408592224],"type":"VEC3"},{"bufferView":2,"componentType":5126,"count":261,"max":[0.46875,0.984375],"min":[0.03125,0.859375],"type":"VEC2"},{"bufferView":3,"componentType":5123,"count":369,"max":[260],"min":[0],"type":"SCALAR"},{"bufferView":4,"componentType":5126,"count":108,"max":[0.171875,0.5318766832351685,0.20654667913913727],"min":[-0.171875,0.15687669813632965,-0.10595331341028214],"type":"VEC3"},{"bufferView":5,"componentType":5126,"count":108,"max":[0.8748837113380432,0.9304392337799072,0.9972518682479858],"min":[-0.8748837113380432,-0.9542341232299805,-0.9972518682479858],"type":"VEC3"},{"bufferView":6,"componentType":5126,"count":108,"max":[0.08817142248153687,0.9375],"min":[0.0625,0.921875],"type":"VEC2"},{"bufferView":7,"componentType":5123,"count":144,"max":[107],"min":[0],"type":"SCALAR"},{"bufferView":8,"componentType":5126,"count":146,"max":[0.14119532704353333,0.356961727142334,0.4569595158100128],"min":[-0.10880467295646667,0.23196172714233398,0.05070950463414192],"type":"VEC3"},{"bufferView":9,"componentType":5126,"count":146,"max":[0.9954460263252258,0.9914917349815369,0.9867462515830994],"min":[-0.9921794533729553,-0.9972585439682007,-0.7965543866157532],"type":"VEC3"},{"bufferView":10,"componentType":5126,"count":146,"max":[0.2652229070663452,0.9612131714820862],"min":[0.0234375,0.8984375],"type":"VEC2"},{"bufferView":11,"componentType":5123,"count":204,"max":[145],"min":[0],"type":"SCALAR"},{"bufferView":12,"componentType":5126,"count":146,"max":[0.10880467295646667,0.356961727142334,0.4569595158100128],"min":[-0.14119532704353333,0.23196172714233398,0.05070950463414192],"type":"VEC3"},{"bufferView":13,"componentType":5126,"count":146,"max":[0.9921794533729553,0.9914917349815369,0.9867462515830994],"min":[-0.9954460263252258,-0.9972585439682007,-0.7965543866157532],"type":"VEC3"},{"bufferView":14,"componentType":5126,"count":146,"max":[0.24959789216518402,0.9612131714820862],"min":[0.0234375,0.8984375],"type":"VEC2"},{"bufferView":15,"componentType":5123,"count":204,"max":[145],"min":[0],"type":"SCALAR"},{"bufferView":16,"componentType":5126,"count":88,"max":[-0.05000000074505806,0.1839611530303955,0.08502412587404251],"min":[-0.23749999701976776,-0.0035388499964028597,-0.1962258666753769],"type":"VEC3"},{"bufferView":17,"componentType":5126,"count":88,"max":[0.9876840710639954,0.9985247254371643,0.9424533843994141],"min":[-0.9654150009155273,-0.9999992847442627,-0.9897806644439697],"type":"VEC3"},{"bufferView":18,"componentType":5126,"count":88,"max":[0.234375,0.953125],"min":[0.0546875,0.9140625],"type":"VEC2"},{"bufferView":19,"componentType":5123,"count":132,"max":[87],"min":[0],"type":"SCALAR"},{"bufferView":20,"componentType":5126,"count":88,"max":[0.23749999701976776,0.1839611530303955,0.08502412587404251],"min":[0.05000000074505806,-0.0035388499964028597,-0.1962258666753769],"type":"VEC3"},{"bufferView":21,"componentType":5126,"count":88,"max":[0.9654150009155273,0.9985247254371643,0.9424533843994141],"min":[-0.9876840710639954,-0.9999992847442627,-0.9897806644439697],"type":"VEC3"},{"bufferView":22,"componentType":5126,"count":88,"max":[0.25,0.9609375],"min":[0.0625,0.9306640625],"type":"VEC2"},{"bufferView":23,"componentType":5123,"count":132,"max":[87],"min":[0],"type":"SCALAR"},{"bufferView":24,"componentType":5126,"count":5,"max":[1.5416666269302368],"min":[0],"type":"SCALAR"},{"bufferView":25,"componentType":5126,"count":5,"max":[8.419446615214661e-17,0.6875,8.326672684688674e-17],"min":[8.036744556499858e-17,0.65625,7.94397062597387e-17],"type":"VEC3"},{"bufferView":26,"componentType":5126,"count":5,"max":[1.5416666269302368],"min":[0],"type":"SCALAR"},{"bufferView":27,"componentType":5126,"count":5,"max":[0,0.08715574443340302,0,1],"min":[0,-0.08715574443340302,0,0.9961947202682495],"type":"VEC4"},{"bufferView":28,"componentType":5126,"count":5,"max":[1.5416666269302368],"min":[0],"type":"SCALAR"},{"bufferView":29,"componentType":5126,"count":5,"max":[0,0,0],"min":[-3.8270214143286495e-18,-0.015625,-3.8270214143286495e-18],"type":"VEC3"},{"bufferView":30,"componentType":5126,"count":5,"max":[1.5416666269302368],"min":[0],"type":"SCALAR"},{"bufferView":31,"componentType":5126,"count":5,"max":[0.2181917130947113,0,0.08174479752779007,1],"min":[-0.36166203022003174,-0.13194555044174194,0,0.9300123453140259],"type":"VEC4"},{"bufferView":32,"componentType":5126,"count":5,"max":[1.5416666269302368],"min":[0],"type":"SCALAR"},{"bufferView":33,"componentType":5126,"count":5,"max":[-0.21875,0.5,0.078125],"min":[-0.21875,0.4375,4.163336342344337e-17],"type":"VEC3"},{"bufferView":34,"componentType":5126,"count":5,"max":[1.5416666269302368],"min":[0],"type":"SCALAR"},{"bufferView":35,"componentType":5126,"count":5,"max":[0.2181917130947113,0.13194555044174194,0,1],"min":[-0.36166203022003174,0,-0.08174479752779007,0.9300123453140259],"type":"VEC4"},{"bufferView":36,"componentType":5126,"count":5,"max":[1.5416666269302368],"min":[0],"type":"SCALAR"},{"bufferView":37,"componentType":5126,"count":5,"max":[0.21875,0.5,0.078125],"min":[0.21875,0.4375,-0.015625],"type":"VEC3"},{"bufferView":38,"componentType":5126,"count":5,"max":[1.5416666269302368],"min":[0],"type":"SCALAR"},{"bufferView":39,"componentType":5126,"count":5,"max":[0.19509032368659973,0,0,1],"min":[-0.19509032368659973,0,0,0.9807852506637573],"type":"VEC4"},{"bufferView":40,"componentType":5126,"count":6,"max":[1.5416666269302368],"min":[0],"type":"SCALAR"},{"bufferView":41,"componentType":5126,"count":6,"max":[-0.125,0.21875,0.1875],"min":[-0.125,0.15625,-0.0625],"type":"VEC3"},{"bufferView":42,"componentType":5126,"count":5,"max":[1.5416666269302368],"min":[0],"type":"SCALAR"},{"bufferView":43,"componentType":5126,"count":5,"max":[0.19509032368659973,0,0,1],"min":[-0.19509032368659973,0,0,0.9807852506637573],"type":"VEC4"},{"bufferView":44,"componentType":5126,"count":6,"max":[1.5416666269302368],"min":[0],"type":"SCALAR"},{"bufferView":45,"componentType":5126,"count":6,"max":[0.125,0.21875,0.1875],"min":[0.125,0.15625,-0.0625],"type":"VEC3"},{"bufferView":46,"componentType":5126,"count":2,"max":[0.9166666865348816],"min":[0],"type":"SCALAR"},{"bufferView":47,"componentType":5126,"count":2,"max":[6.123234262925839e-17,1,6.123234262925839e-17,-1.0402068896571428e-33],"min":[6.123234262925839e-17,1,6.123234262925839e-17,-1.0402068896571428e-33],"type":"VEC4"},{"bufferView":48,"componentType":5126,"count":2,"max":[0.9166666865348816],"min":[0],"type":"SCALAR"},{"bufferView":49,"componentType":5126,"count":2,"max":[-6.938893903907228e-17,0.004687500186264515,0.027984101325273514],"min":[-6.938893903907228e-17,0.004687500186264515,0.027984101325273514],"type":"VEC3"},{"bufferView":50,"componentType":5126,"count":3,"max":[0.9166666865348816],"min":[0],"type":"SCALAR"},{"bufferView":51,"componentType":5126,"count":3,"max":[0.10886687785387039,0,0,1],"min":[0,0,0,0.9940563440322876],"type":"VEC4"},{"bufferView":52,"componentType":5126,"count":4,"max":[0.9166666865348816],"min":[0],"type":"SCALAR"},{"bufferView":53,"componentType":5126,"count":4,"max":[8.419446615214661e-17,0.7325000166893005,0.02500000037252903],"min":[8.419446615214661e-17,0.6875,-0.06875000149011612],"type":"VEC3"},{"bufferView":54,"componentType":5126,"count":4,"max":[0.9166666865348816],"min":[0],"type":"SCALAR"},{"bufferView":55,"componentType":5126,"count":4,"max":[0.08715574443340302,0,0,1],"min":[-0.037391193211078644,0,0,0.9961947202682495],"type":"VEC4"},{"bufferView":56,"componentType":5126,"count":4,"max":[0.9166666865348816],"min":[0],"type":"SCALAR"},{"bufferView":57,"componentType":5126,"count":4,"max":[1.9135107071643248e-18,0.015625,0.011250000447034836],"min":[0,0,-0.0625],"type":"VEC3"},{"bufferView":58,"componentType":5126,"count":4,"max":[0.9166666865348816],"min":[0],"type":"SCALAR"},{"bufferView":59,"componentType":5126,"count":4,"max":[0.6755902171134949,0,0,1],"min":[-0.4226182699203491,0,0,0.7372773289680481],"type":"VEC4"},{"bufferView":60,"componentType":5126,"count":2,"max":[0.9166666865348816],"min":[0],"type":"SCALAR"},{"bufferView":61,"componentType":5126,"count":2,"max":[-0.21875,0.5,0.03125],"min":[-0.21875,0.5,0.03125],"type":"VEC3"},{"bufferView":62,"componentType":5126,"count":4,"max":[0.9166666865348816],"min":[0],"type":"SCALAR"},{"bufferView":63,"componentType":5126,"count":4,"max":[0.6915130615234375,0,0,1],"min":[-0.15212339162826538,0,0,0.7223639488220215],"type":"VEC4"},{"bufferView":64,"componentType":5126,"count":3,"max":[0.9166666865348816],"min":[0],"type":"SCALAR"},{"bufferView":65,"componentType":5126,"count":3,"max":[0.21875,0.5,0.03125],"min":[0.21875,0.4972763955593109,0.0001189156828331761],"type":"VEC3"},{"bufferView":66,"componentType":5126,"count":4,"max":[0.9166666865348816],"min":[0],"type":"SCALAR"},{"bufferView":67,"componentType":5126,"count":4,"max":[0.3420201539993286,0,0,1],"min":[0,0,0,0.9396926164627075],"type":"VEC4"},{"bufferView":68,"componentType":5126,"count":6,"max":[1],"min":[0],"type":"SCALAR"},{"bufferView":69,"componentType":5126,"count":6,"max":[-0.125,0.28125,0.0625],"min":[-0.125,0.15625,-0.13249999284744263],"type":"VEC3"},{"bufferView":70,"componentType":5126,"count":6,"max":[0.9166666865348816],"min":[0],"type":"SCALAR"},{"bufferView":71,"componentType":5126,"count":6,"max":[0.0713391825556755,0,0.002438857452943921,1],"min":[-0.47045958042144775,-0.0007990972953848541,0,0.8824177980422974],"type":"VEC4"},{"bufferView":72,"componentType":5126,"count":6,"max":[0.9166666865348816],"min":[0],"type":"SCALAR"},{"bufferView":73,"componentType":5126,"count":6,"max":[0.125,0.2537499964237213,0.19437499344348907],"min":[0.125,0.15625,-0.045625001192092896],"type":"VEC3"}],"materials":[{"pbrMetallicRoughness":{"metallicFactor":0,"roughnessFactor":1,"baseColorTexture":{"index":0}},"alphaMode":"MASK","alphaCutoff":0.05,"doubleSided":true}],"textures":[{"sampler":0,"source":0,"name":"godot.png"}],"samplers":[{"magFilter":9728,"minFilter":9728,"wrapS":33071,"wrapT":33071}],"images":[{"mimeType":"image/png","uri":"data:image/png;base64,"}],"meshes":[{"primitives":[{"mode":4,"attributes":{"POSITION":0,"NORMAL":1,"TEXCOORD_0":2},"indices":3,"material":0}]},{"primitives":[{"mode":4,"attributes":{"POSITION":4,"NORMAL":5,"TEXCOORD_0":6},"indices":7,"material":0}]},{"primitives":[{"mode":4,"attributes":{"POSITION":8,"NORMAL":9,"TEXCOORD_0":10},"indices":11,"material":0}]},{"primitives":[{"mode":4,"attributes":{"POSITION":12,"NORMAL":13,"TEXCOORD_0":14},"indices":15,"material":0}]},{"primitives":[{"mode":4,"attributes":{"POSITION":16,"NORMAL":17,"TEXCOORD_0":18},"indices":19,"material":0}]},{"primitives":[{"mode":4,"attributes":{"POSITION":20,"NORMAL":21,"TEXCOORD_0":22},"indices":23,"material":0}]}],"animations":[{"name":"animation.model.walk","samplers":[{"input":24,"output":25,"interpolation":"LINEAR"},{"input":26,"output":27,"interpolation":"LINEAR"},{"input":28,"output":29,"interpolation":"LINEAR"},{"input":30,"output":31,"interpolation":"LINEAR"},{"input":32,"output":33,"interpolation":"LINEAR"},{"input":34,"output":35,"interpolation":"LINEAR"},{"input":36,"output":37,"interpolation":"LINEAR"},{"input":38,"output":39,"interpolation":"LINEAR"},{"input":40,"output":41,"interpolation":"LINEAR"},{"input":42,"output":43,"interpolation":"LINEAR"},{"input":44,"output":45,"interpolation":"LINEAR"}],"channels":[{"sampler":0,"target":{"node":1,"path":"translation"}},{"sampler":1,"target":{"node":7,"path":"rotation"}},{"sampler":2,"target":{"node":7,"path":"translation"}},{"sampler":3,"target":{"node":4,"path":"rotation"}},{"sampler":4,"target":{"node":4,"path":"translation"}},{"sampler":5,"target":{"node":6,"path":"rotation"}},{"sampler":6,"target":{"node":6,"path":"translation"}},{"sampler":7,"target":{"node":9,"path":"rotation"}},{"sampler":8,"target":{"node":9,"path":"translation"}},{"sampler":9,"target":{"node":11,"path":"rotation"}},{"sampler":10,"target":{"node":11,"path":"translation"}}]},{"name":"animation.model.jump","samplers":[{"input":46,"output":47,"interpolation":"LINEAR"},{"input":48,"output":49,"interpolation":"LINEAR"},{"input":50,"output":51,"interpolation":"LINEAR"},{"input":52,"output":53,"interpolation":"LINEAR"},{"input":54,"output":55,"interpolation":"LINEAR"},{"input":56,"output":57,"interpolation":"LINEAR"},{"input":58,"output":59,"interpolation":"LINEAR"},{"input":60,"output":61,"interpolation":"LINEAR"},{"input":62,"output":63,"interpolation":"LINEAR"},{"input":64,"output":65,"interpolation":"LINEAR"},{"input":66,"output":67,"interpolation":"LINEAR"},{"input":68,"output":69,"interpolation":"LINEAR"},{"input":70,"output":71,"interpolation":"LINEAR"},{"input":72,"output":73,"interpolation":"LINEAR"}],"channels":[{"sampler":0,"target":{"node":12,"path":"rotation"}},{"sampler":1,"target":{"node":12,"path":"translation"}},{"sampler":2,"target":{"node":1,"path":"rotation"}},{"sampler":3,"target":{"node":1,"path":"translation"}},{"sampler":4,"target":{"node":7,"path":"rotation"}},{"sampler":5,"target":{"node":7,"path":"translation"}},{"sampler":6,"target":{"node":4,"path":"rotation"}},{"sampler":7,"target":{"node":4,"path":"translation"}},{"sampler":8,"target":{"node":6,"path":"rotation"}},{"sampler":9,"target":{"node":6,"path":"translation"}},{"sampler":10,"target":{"node":9,"path":"rotation"}},{"sampler":11,"target":{"node":9,"path":"translation"}},{"sampler":12,"target":{"node":11,"path":"rotation"}},{"sampler":13,"target":{"node":11,"path":"translation"}}]}]}